<svg width="25" height="25" viewBox="0 0 25 25" fill="none" xmlns="http://www.w3.org/2000/svg">
<path d="M18.0154 8.5C18.0154 6.9087 17.3832 5.38258 16.258 4.25736C15.1328 3.13214 13.6067 2.5 12.0154 2.5C10.4241 2.5 8.89796 3.13214 7.77274 4.25736C6.64752 5.38258 6.01538 6.9087 6.01538 8.5C6.01538 15.5 3.01538 17.5 3.01538 17.5H21.0154C21.0154 17.5 18.0154 15.5 18.0154 8.5Z" stroke="black" stroke-opacity="0.6" stroke-width="2" stroke-linecap="round" stroke-linejoin="round"/>
<path d="M13.7454 21.5C13.5696 21.8031 13.3172 22.0547 13.0136 22.2295C12.71 22.4044 12.3657 22.4965 12.0154 22.4965C11.665 22.4965 11.3208 22.4044 11.0171 22.2295C10.7135 22.0547 10.4612 21.8031 10.2854 21.5" stroke="black" stroke-opacity="0.6" stroke-width="2" stroke-linecap="round" stroke-linejoin="round"/>
</svg>
