<svg width="25" height="25" viewBox="0 0 25 25" fill="none" xmlns="http://www.w3.org/2000/svg">
<path d="M16.5154 9.89999L7.51538 4.70999" stroke="black" stroke-opacity="0.6" stroke-width="2" stroke-linecap="round" stroke-linejoin="round"/>
<path d="M21.0154 16.5V8.49999C21.015 8.14927 20.9224 7.8048 20.7469 7.50116C20.5714 7.19751 20.3191 6.94536 20.0154 6.76999L13.0154 2.76999C12.7113 2.59446 12.3665 2.50204 12.0154 2.50204C11.6643 2.50204 11.3194 2.59446 11.0154 2.76999L4.01538 6.76999C3.71164 6.94536 3.45936 7.19751 3.28384 7.50116C3.10832 7.8048 3.01574 8.14927 3.01538 8.49999V16.5C3.01574 16.8507 3.10832 17.1952 3.28384 17.4988C3.45936 17.8025 3.71164 18.0546 4.01538 18.23L11.0154 22.23C11.3194 22.4055 11.6643 22.4979 12.0154 22.4979C12.3665 22.4979 12.7113 22.4055 13.0154 22.23L20.0154 18.23C20.3191 18.0546 20.5714 17.8025 20.7469 17.4988C20.9224 17.1952 21.015 16.8507 21.0154 16.5Z" stroke="black" stroke-opacity="0.6" stroke-width="2" stroke-linecap="round" stroke-linejoin="round"/>
<path d="M3.28537 7.45999L12.0154 12.51L20.7454 7.45999" stroke="black" stroke-opacity="0.6" stroke-width="2" stroke-linecap="round" stroke-linejoin="round"/>
<path d="M12.0154 22.58V12.5" stroke="black" stroke-opacity="0.6" stroke-width="2" stroke-linecap="round" stroke-linejoin="round"/>
</svg>
