<svg width="25" height="25" viewBox="0 0 25 25" fill="none" xmlns="http://www.w3.org/2000/svg">
<g clip-path="url(#clip0_119_265)">
<path d="M12.0154 15.5C13.6722 15.5 15.0154 14.1569 15.0154 12.5C15.0154 10.8431 13.6722 9.5 12.0154 9.5C10.3585 9.5 9.01538 10.8431 9.01538 12.5C9.01538 14.1569 10.3585 15.5 12.0154 15.5Z" stroke="black" stroke-opacity="0.6" stroke-width="2" stroke-linecap="round" stroke-linejoin="round"/>
<path d="M19.4154 15.5C19.2823 15.8016 19.2426 16.1362 19.3014 16.4606C19.3602 16.785 19.5148 17.0843 19.7454 17.32L19.8054 17.38C19.9913 17.5657 20.1389 17.7863 20.2395 18.0291C20.3402 18.2719 20.392 18.5322 20.392 18.795C20.392 19.0578 20.3402 19.3181 20.2395 19.5609C20.1389 19.8037 19.9913 20.0243 19.8054 20.21C19.6196 20.396 19.3991 20.5435 19.1563 20.6441C18.9135 20.7448 18.6532 20.7966 18.3904 20.7966C18.1276 20.7966 17.8673 20.7448 17.6245 20.6441C17.3817 20.5435 17.1611 20.396 16.9754 20.21L16.9154 20.15C16.6797 19.9195 16.3804 19.7648 16.056 19.706C15.7316 19.6472 15.397 19.6869 15.0954 19.82C14.7996 19.9468 14.5474 20.1572 14.3697 20.4255C14.192 20.6938 14.0967 21.0082 14.0954 21.33V21.5C14.0954 22.0304 13.8847 22.5391 13.5096 22.9142C13.1345 23.2893 12.6258 23.5 12.0954 23.5C11.5649 23.5 11.0562 23.2893 10.6812 22.9142C10.3061 22.5391 10.0954 22.0304 10.0954 21.5V21.41C10.0876 21.079 9.9805 20.758 9.78789 20.4887C9.59528 20.2194 9.32612 20.0143 9.01538 19.9C8.71377 19.7669 8.37919 19.7272 8.05479 19.786C7.7304 19.8448 7.43106 19.9995 7.19538 20.23L7.13538 20.29C6.94964 20.476 6.72906 20.6235 6.48626 20.7241C6.24347 20.8248 5.98321 20.8766 5.72038 20.8766C5.45755 20.8766 5.1973 20.8248 4.9545 20.7241C4.7117 20.6235 4.49113 20.476 4.30538 20.29C4.11943 20.1043 3.97191 19.8837 3.87126 19.6409C3.77061 19.3981 3.71881 19.1378 3.71881 18.875C3.71881 18.6122 3.77061 18.3519 3.87126 18.1091C3.97191 17.8663 4.11943 17.6457 4.30538 17.46L4.36538 17.4C4.59592 17.1643 4.75057 16.865 4.80939 16.5406C4.8682 16.2162 4.8285 15.8816 4.69538 15.58C4.56862 15.2842 4.35814 15.032 4.08985 14.8543C3.82156 14.6766 3.50717 14.5813 3.18538 14.58H3.01538C2.48495 14.58 1.97624 14.3693 1.60117 13.9942C1.22609 13.6191 1.01538 13.1104 1.01538 12.58C1.01538 12.0496 1.22609 11.5409 1.60117 11.1658C1.97624 10.7907 2.48495 10.58 3.01538 10.58H3.10538C3.43638 10.5723 3.75739 10.4651 4.02668 10.2725C4.29597 10.0799 4.5011 9.81074 4.61538 9.5C4.7485 9.19838 4.7882 8.86381 4.72939 8.53941C4.67057 8.21502 4.51592 7.91568 4.28538 7.68L4.22538 7.62C4.03943 7.43425 3.89191 7.21368 3.79126 6.97088C3.69061 6.72808 3.63881 6.46783 3.63881 6.205C3.63881 5.94217 3.69061 5.68192 3.79126 5.43912C3.89191 5.19632 4.03943 4.97575 4.22538 4.79C4.41113 4.60405 4.6317 4.45653 4.8745 4.35588C5.1173 4.25523 5.37755 4.20343 5.64038 4.20343C5.90321 4.20343 6.16347 4.25523 6.40626 4.35588C6.64906 4.45653 6.86964 4.60405 7.05538 4.79L7.11538 4.85C7.35106 5.08054 7.6504 5.23519 7.97479 5.294C8.29919 5.35282 8.63377 5.31312 8.93538 5.18H9.01538C9.31115 5.05324 9.5634 4.84276 9.74107 4.57447C9.91875 4.30618 10.0141 3.99179 10.0154 3.67V3.5C10.0154 2.96957 10.2261 2.46086 10.6012 2.08579C10.9762 1.71071 11.4849 1.5 12.0154 1.5C12.5458 1.5 13.0545 1.71071 13.4296 2.08579C13.8047 2.46086 14.0154 2.96957 14.0154 3.5V3.59C14.0167 3.91179 14.112 4.22618 14.2897 4.49447C14.4674 4.76276 14.7196 4.97324 15.0154 5.1C15.317 5.23312 15.6516 5.27282 15.976 5.214C16.3004 5.15519 16.5997 5.00054 16.8354 4.77L16.8954 4.71C17.0811 4.52405 17.3017 4.37653 17.5445 4.27588C17.7873 4.17523 18.0476 4.12343 18.3104 4.12343C18.5732 4.12343 18.8335 4.17523 19.0763 4.27588C19.3191 4.37653 19.5396 4.52405 19.7254 4.71C19.9113 4.89575 20.0589 5.11632 20.1595 5.35912C20.2602 5.60192 20.312 5.86217 20.312 6.125C20.312 6.38783 20.2602 6.64809 20.1595 6.89088C20.0589 7.13368 19.9113 7.35425 19.7254 7.54L19.6654 7.6C19.4348 7.83568 19.2802 8.13502 19.2214 8.45941C19.1626 8.78381 19.2023 9.11838 19.3354 9.42V9.5C19.4621 9.79577 19.6726 10.048 19.9409 10.2257C20.2092 10.4034 20.5236 10.4987 20.8454 10.5H21.0154C21.5458 10.5 22.0545 10.7107 22.4296 11.0858C22.8047 11.4609 23.0154 11.9696 23.0154 12.5C23.0154 13.0304 22.8047 13.5391 22.4296 13.9142C22.0545 14.2893 21.5458 14.5 21.0154 14.5H20.9254C20.6036 14.5013 20.2892 14.5966 20.0209 14.7743C19.7526 14.952 19.5421 15.2042 19.4154 15.5V15.5Z" stroke="black" stroke-opacity="0.6" stroke-width="2" stroke-linecap="round" stroke-linejoin="round"/>
</g>
<defs>
<clipPath id="clip0_119_265">
<rect width="24" height="24" fill="black" transform="translate(0.0153809 0.5)"/>
</clipPath>
</defs>
</svg>
